<?xml version="1.0" encoding="utf-8"?>
<!-- Generator: Adobe Illustrator 18.0.0, SVG Export Plug-In . SVG Version: 6.00 Build 0)  -->
<!DOCTYPE svg PUBLIC "-//W3C//DTD SVG 1.1//EN" "http://www.w3.org/Graphics/SVG/1.1/DTD/svg11.dtd">
<svg version="1.1" id="圖層_1" xmlns="http://www.w3.org/2000/svg" xmlns:xlink="http://www.w3.org/1999/xlink" x="0px" y="0px"
	 viewBox="8 0 51 48" enable-background="new 8 0 51 48" xml:space="preserve">
<g>
	<g>
		<polygon fill="#CCDBA5" points="37.1,35.2 43,35.2 50.1,24.6 44.3,24.5 		"/>
		<path fill="#A5A5A5" d="M43.4,11.1c2.1,2.3,3.2,5.3,3.2,8.4l0,1.1l4.8,0l0-1.1c0-4.8-1.9-9.3-5.3-12.6l3-4.8l-5.6,0l-1.3,2
			C39.7,2.7,36.9,2,34,2l-0.1,0c-9.5,0-17.4,7.8-17.4,17.3c0,5.6,2.6,10.9,7.1,14.2l-8,12.5L47,46l0-4.8l-22.8,0L43.4,11.1z
			 M33.9,6.8L33.9,6.8c2.1,0,4,0.5,5.8,1.3L26.1,29.4c-3.1-2.4-4.9-6.1-4.8-10.1C21.3,12.4,27,6.8,33.9,6.8z"/>
		<path fill="#CCDBA5" d="M52.7,30.6c-0.5-0.5-1.2-0.8-2-0.8c-1.5,0-2.8,1.2-2.8,2.7c0,1.5,1.2,2.8,2.7,2.8h0c1.5,0,2.8-1.2,2.8-2.7
			C53.5,31.8,53.2,31.1,52.7,30.6z M50.7,34.2L50.7,34.2L50.7,34.2L50.7,34.2z"/>
	</g>
</g>
</svg>
