<?xml version="1.0" encoding="utf-8"?>
<!-- Generator: Adobe Illustrator 24.0.1, SVG Export Plug-In . SVG Version: 6.00 Build 0)  -->
<svg version="1.1" id="Capa_1" xmlns="http://www.w3.org/2000/svg" xmlns:xlink="http://www.w3.org/1999/xlink" x="0px" y="0px"
	 viewBox="0 0 45 45" style="enable-background:new 0 0 45 45;" xml:space="preserve">
<style type="text/css">
	.st0{fill:#FFFFFF;}
	.st1{fill:none;stroke:#707070;stroke-width:0.5273;stroke-miterlimit:10;}
</style>
<path class="st0" d="M22.5,43.5L22.5,43.5c-11.4,0-20.8-9.4-20.8-20.8v0C1.7,11.3,11.1,2,22.5,2h0c11.4,0,20.8,9.4,20.8,20.8v0
	C43.3,34.2,33.9,43.5,22.5,43.5z"/>
<g>
	<path class="st1" d="M31.3,12.7h-6.9c-0.7,0-1.2,0.6-1.2,1.2s0.6,1.2,1.2,1.2h3.9l-6.5,6.5c-0.2,0.2-0.4,0.5-0.4,0.9
		c0,0.3,0.1,0.6,0.4,0.9c0.2,0.2,0.5,0.4,0.9,0.4c0.3,0,0.6-0.1,0.9-0.4l6.5-6.5v3.9c0,0.7,0.6,1.2,1.2,1.2c0.7,0,1.2-0.6,1.2-1.2
		v-6.9C32.5,13.3,32,12.7,31.3,12.7z"/>
	<path class="st1" d="M26.7,30.7H14.6V18.6h9.1l2.1-2.1H13.5c-0.6,0-1.1,0.5-1.1,1.1v14.2c0,0.6,0.5,1.1,1.1,1.1h14.2
		c0.6,0,1.1-0.5,1.1-1.1V19.4l-2.1,2.1V30.7z"/>
</g>
</svg>
